/home/minht/3dpredictsim_tutorial/predsim_tutorial/Results/Case_12/GRF.mot
version=1
nRows=27
nColumns=19
inDegrees=yes
endheader 
time	r_ground_force_vx	r_ground_force_vy	r_ground_force_vz	r_ground_force_px	r_ground_force_py	r_ground_force_pz	l_ground_force_vx	l_ground_force_vy	l_ground_force_vz	l_ground_force_px	l_ground_force_py	l_ground_force_pz	r_ground_torque_x	r_ground_torque_y	r_ground_torque_z	l_ground_torque_x	l_ground_torque_y	l_ground_torque_z	
          0.51838864	          9.19859623	        861.41492309	         18.13235983	          0.00057621	          0.00000000	          0.00082630	          0.00000000	          0.00000000	          0.00000000	          0.00000000	          0.00000000	          0.00000000	          0.00000000	         -1.62746800	          0.00000000	          0.00000000	          0.00000000	          0.00000000	
          0.52624301	         18.38987650	        834.96591641	         14.49524992	          0.00101611	          0.00000000	          0.00123455	          0.00000000	          0.00000000	          0.00000000	          0.00000000	          0.00000000	          0.00000000	          0.00000000	         -2.35645133	          0.00000000	          0.00000000	          0.00000000	          0.00000000	
          0.53409739	         28.73195389	        799.15031287	         11.10419787	          0.00175594	          0.00000000	          0.00185677	          0.00000000	          0.00000000	          0.00000000	          0.00000000	          0.00000000	          0.00000000	          0.00000000	         -3.35548591	          0.00000000	          0.00000000	          0.00000000	          0.00000000	
          0.54195176	         39.98076299	        753.85346629	         10.92655233	          0.00337133	          0.00000000	          0.00317372	          0.00000000	          0.00000000	          0.00000000	          0.00000000	          0.00000000	          0.00000000	          0.00000000	         -5.31067153	          0.00000000	          0.00000000	          0.00000000	          0.00000000	
          0.54980613	         50.05130385	        690.32149428	          7.45077517	          0.00694957	          0.00000000	          0.00594111	          0.00000000	          0.00000000	          0.00000000	          0.00000000	          0.00000000	          0.00000000	          0.00000000	         -8.74958364	          0.00000000	          0.00000000	          0.00000000	          0.00000000	
          0.55766051	         57.55045111	        598.06791098	          1.37328493	          0.01318688	          0.00000000	          0.01043563	        -58.66118368	         44.51974672	         20.19044967	          4.50276884	          0.00000000	         -1.73897982	          0.00000000	        -12.38224405	          0.00000000	          0.00000000	        -27.51007005	          0.00000000	
          0.56551488	         58.77875477	        471.42405114	         -3.68656195	          0.02493527	          0.00000000	          0.01859925	        -75.16290909	         63.57443543	         23.36305872	          2.59700583	          0.00000000	         -0.96807934	          0.00000000	        -15.87072001	          0.00000000	          0.00000000	        -24.38110389	          0.00000000	
          0.57336925	         50.46340548	        329.16233006	         -7.80745960	          0.06066546	          0.00000000	          0.04333508	       -107.33307848	        104.69354741	         24.10484423	          1.18947170	          0.00000000	         -0.41551498	          0.00000000	        -21.88254985	          0.00000000	          0.00000000	        -22.38741269	          0.00000000	
          0.58122363	         38.57764450	        241.57870212	        -17.39305433	          0.15499568	          0.00000000	          0.10657524	        -87.89051719	        191.50074159	          2.87479407	          0.50190335	          0.00000000	         -0.16444422	          0.00000000	        -19.18980924	          0.00000000	          0.00000000	        -12.59947440	          0.00000000	
          0.58907800	         21.30084686	        177.19827451	        -20.82540448	          0.35718837	          0.00000000	          0.23972767	        -71.23988409	        319.22390354	        -18.13141006	          0.22800242	          0.00000000	         -0.07239557	          0.00000000	        -18.32917609	          0.00000000	          0.00000000	         -4.33015675	          0.00000000	
          0.59693237	          1.70716395	        114.07265173	        -20.28648538	          0.83276434	          0.00000000	          0.53987995	        -42.63123468	        472.42095425	        -36.46930887	          0.10476591	          0.00000000	         -0.03197411	          0.00000000	        -15.46683564	          0.00000000	          0.00000000	          3.21829314	          0.00000000	
          0.60478675	        -14.27275187	         76.47919747	        -16.71227539	          1.59968826	          0.00000000	          0.99401612	        -10.80604429	        599.99221021	        -44.06742185	          0.05701488	          0.00000000	         -0.01741184	          0.00000000	         -3.17826005	          0.00000000	          0.00000000	          6.72396486	          0.00000000	
          0.61264112	        -25.06544844	         45.58092539	        -13.15068230	          3.09818307	          0.00000000	          1.87872978	         26.28854975	        686.66629129	        -50.60569757	          0.02982354	          0.00000000	         -0.00872647	          0.00000000	         23.14094492	          0.00000000	          0.00000000	          7.98841154	          0.00000000	
          0.62049549	          0.00000000	          0.00000000	          0.00000000	          0.00000000	          0.00000000	          0.00000000	         60.38698369	        762.10159174	        -57.37891047	          0.01247091	          0.00000000	         -0.00342396	          0.00000000	          0.00000000	          0.00000000	          0.00000000	          4.22143484	          0.00000000	
          0.62834987	          0.00000000	          0.00000000	          0.00000000	          0.00000000	          0.00000000	          0.00000000	         87.55781496	        825.19209907	        -62.41893492	          0.00214059	          0.00000000	         -0.00052074	          0.00000000	          0.00000000	          0.00000000	          0.00000000	          0.65768859	          0.00000000	
          0.63620424	          0.00000000	          0.00000000	          0.00000000	          0.00000000	          0.00000000	          0.00000000	        107.63251301	        869.88635980	        -65.10719806	         -0.00004767	          0.00000000	          0.00001141	          0.00000000	          0.00000000	          0.00000000	          0.00000000	         -0.01415026	          0.00000000	
          0.64405861	          0.00000000	          0.00000000	          0.00000000	          0.00000000	          0.00000000	          0.00000000	        121.52479067	        898.93682090	        -66.04658756	         -0.00001486	          0.00000000	          0.00000341	          0.00000000	          0.00000000	          0.00000000	          0.00000000	         -0.00445077	          0.00000000	
          0.65191299	          0.00000000	          0.00000000	          0.00000000	          0.00000000	          0.00000000	          0.00000000	        130.41594892	        916.19155474	        -66.05736182	         -0.00000868	          0.00000000	          0.00000206	          0.00000000	          0.00000000	          0.00000000	          0.00000000	         -0.00292870	          0.00000000	
          0.65976736	          0.00000000	          0.00000000	          0.00000000	          0.00000000	          0.00000000	          0.00000000	        134.55651505	        923.76591299	        -65.84427887	          0.00005039	          0.00000000	         -0.00001105	          0.00000000	          0.00000000	          0.00000000	          0.00000000	          0.01693341	          0.00000000	
          0.66762173	          0.00000000	          0.00000000	          0.00000000	          0.00000000	          0.00000000	          0.00000000	        135.43543606	        923.35471906	        -65.65573084	          0.00006391	          0.00000000	         -0.00001375	          0.00000000	          0.00000000	          0.00000000	          0.00000000	          0.02318338	          0.00000000	
          0.67547611	          0.00000000	          0.00000000	          0.00000000	          0.00000000	          0.00000000	          0.00000000	        134.39509579	        917.93471007	        -65.52502310	          0.00005899	          0.00000000	         -0.00001215	          0.00000000	          0.00000000	          0.00000000	          0.00000000	          0.02252775	          0.00000000	
          0.68333048	          0.00000000	          0.00000000	          0.00000000	          0.00000000	          0.00000000	          0.00000000	        132.17066759	        909.15700468	        -65.48850168	          0.00005746	          0.00000000	         -0.00001130	          0.00000000	          0.00000000	          0.00000000	          0.00000000	          0.02296034	          0.00000000	
          0.69118485	          0.00000000	          0.00000000	          0.00000000	          0.00000000	          0.00000000	          0.00000000	        129.25824254	        898.39195388	        -65.54888549	          0.00006394	          0.00000000	         -0.00001200	          0.00000000	          0.00000000	          0.00000000	          0.00000000	          0.02644589	          0.00000000	
          0.69903923	          0.00000000	          0.00000000	          0.00000000	          0.00000000	          0.00000000	          0.00000000	        125.98385065	        886.80386619	        -65.74467575	          0.00008229	          0.00000000	         -0.00001473	          0.00000000	          0.00000000	          0.00000000	          0.00000000	          0.03471867	          0.00000000	
          0.70689360	          0.00000000	          0.00000000	          0.00000000	          0.00000000	          0.00000000	          0.00000000	        122.34935532	        874.63872128	        -65.79972844	          0.00012165	          0.00000000	         -0.00002087	          0.00000000	          0.00000000	          0.00000000	          0.00000000	          0.05161507	          0.00000000	
          0.71474797	          0.00000000	          0.00000000	          0.00000000	          0.00000000	          0.00000000	          0.00000000	        118.40919966	        861.91693920	        -65.68919770	          0.00020312	          0.00000000	         -0.00003395	          0.00000000	          0.00000000	          0.00000000	          0.00000000	          0.08592511	          0.00000000	
          0.72260235	          0.00000000	          0.00000000	          0.00000000	          0.00000000	          0.00000000	          0.00000000	        114.45019555	        847.37543018	        -65.67403364	          0.00037795	          0.00000000	         -0.00006432	          0.00000000	          0.00000000	          0.00000000	          0.00000000	          0.15975282	          0.00000000	
